<?xml version="1.0" encoding="UTF-8" standalone="no"?><!DOCTYPE svg PUBLIC "-//W3C//DTD SVG 1.1//EN" "http://www.w3.org/Graphics/SVG/1.1/DTD/svg11.dtd"><svg width="100%" height="100%" viewBox="0 0 123 123" version="1.1" xmlns="http://www.w3.org/2000/svg" xmlns:xlink="http://www.w3.org/1999/xlink" xml:space="preserve" xmlns:serif="http://www.serif.com/" style="fill-rule:evenodd;clip-rule:evenodd;stroke-linejoin:round;stroke-miterlimit:2;"><g transform="matrix(57.020882,0,0,57.020882,-2.737002,81.397309)"><path d="M0.515,-0.087l-0.467,-0.196l0,-0.105l0.467,-0.196l0,0.139l-0.355,0.14l0,-0.06l0.355,0.14l0,0.139Z" style="fill-rule:nonzero;"/></g><g transform="matrix(57.020882,0,0,57.020882,29.365754,81.397309)"><path d="M0.316,0.011c-0.039,0 -0.073,-0.008 -0.102,-0.023c-0.029,-0.015 -0.051,-0.037 -0.068,-0.066c-0.016,-0.028 -0.024,-0.062 -0.024,-0.102l0,-0.508l0.153,0l0,0.509c0,0.017 0.005,0.03 0.015,0.039c0.01,0.009 0.021,0.013 0.035,0.013c0.011,0 0.021,-0.002 0.029,-0.006c0.008,-0.004 0.016,-0.009 0.023,-0.016l0.094,0.094c-0.019,0.021 -0.04,0.037 -0.063,0.048c-0.023,0.011 -0.054,0.017 -0.091,0.017Zm-0.3,-0.365l-0,-0.132l0.419,0l0,0.132l-0.419,0Z" style="fill-rule:nonzero;"/></g><g transform="matrix(57.020882,0,0,57.020882,29.365754,81.397309)"></g><g transform="matrix(57.020882,0,0,57.020882,56.735777,81.397309)"><rect x="0.054" y="-0.726" width="0.153" height="0.726" style="fill-rule:nonzero;"/></g><g transform="matrix(57.020882,0,0,57.020882,71.618227,81.397309)"><path d="M0.003,0.055l0.245,-0.81l0.133,0l-0.245,0.81l-0.133,-0Z" style="fill-rule:nonzero;"/></g><g transform="matrix(57.020882,0,0,57.020882,93.514246,81.397309)"><path d="M0.048,-0.445l0,-0.139l0.467,0.196l0,0.105l-0.467,0.196l0,-0.138l0.355,-0.14l0,0.06l-0.355,-0.14Z" style="fill-rule:nonzero;"/></g><g transform="matrix(57.020882,0,0,57.020882,125.617002,81.397309)"></g></svg>