<?xml version="1.0" encoding="UTF-8" standalone="no"?><!DOCTYPE svg PUBLIC "-//W3C//DTD SVG 1.1//EN" "http://www.w3.org/Graphics/SVG/1.1/DTD/svg11.dtd"><svg width="100%" height="100%" viewBox="0 0 123 123" version="1.1" xmlns="http://www.w3.org/2000/svg" xmlns:xlink="http://www.w3.org/1999/xlink" xml:space="preserve" xmlns:serif="http://www.serif.com/" style="fill-rule:evenodd;clip-rule:evenodd;stroke-linejoin:round;stroke-miterlimit:2;"><g><path d="M26.629,76.436l-26.629,-11.176l0,-5.987l26.629,-11.176l0,7.926l-20.242,7.983l0,-3.421l20.242,7.983l-0,7.926l0,-0.057Z" style="fill:#fff;fill-rule:nonzero;"/></g><g><path d="M47.384,82.025c-2.224,0 -4.163,-0.456 -5.816,-1.311c-1.654,-0.855 -2.908,-2.11 -3.877,-3.763c-0.912,-1.597 -1.369,-3.535 -1.369,-5.816l0,-28.967l8.724,0l0,29.024c0,0.969 0.285,1.711 0.855,2.224c0.57,0.513 1.197,0.741 1.996,0.741c0.627,0 1.197,-0.114 1.654,-0.342c0.456,-0.228 0.912,-0.513 1.311,-0.912l5.36,5.36c-1.083,1.197 -2.281,2.11 -3.592,2.737c-1.311,0.627 -3.079,0.969 -5.189,0.969l-0.057,0.057Zm-17.106,-20.813l0,-7.527l23.892,0l0,7.527l-23.892,0Z" style="fill:#fff;fill-rule:nonzero;"/></g><g><rect x="59.815" y="40" width="8.724" height="41.397" style="fill:#fff;"/></g><g><path d="M71.789,84.533l13.97,-46.187l7.584,0l-13.97,46.187l-7.584,0Z" style="fill:#fff;fill-rule:nonzero;"/></g><g><path d="M96.251,56.023l0,-7.926l26.629,11.176l0,5.987l-26.629,11.176l0,-7.869l20.242,-7.983l0,3.421l-20.242,-7.983Z" style="fill:#fff;fill-rule:nonzero;"/></g></svg>